# xmcd
#
# Track frame offsets: 
#        150
#        11570
#        24375
#        38167
#        49925
#        62660
#        74947
#        86582
#        100525
#        111177
#        121715
#        134470
#        147585
#        159670
#        173995
#        184455
#        197255
#        211117
#        227142
#        239842
#
# Disc length: 3386 seconds
#
# Revision: 3
# Processed by: cddbd v1.5.2PL0 Copyright (c) Steve Scherf et al.
# Submitted via: ExactAudioCopy v0.99pb5
#
DISCID=220d3814
DTITLE=Ray Charles - Ray Charles [Charly Classic Hits]
DYEAR=1992
DGENRE=Blues
TTITLE0=Confession blues
TTITLE1=Can any one ask for more
TTITLE2=This love of mine
TTITLE3=How long blues
TTITLE4=Blues before sunrise
TTITLE5=Goin' down slow
TTITLE6=See see rider
TTITLE7=Late in the evening blues
TTITLE8=The ego song
TTITLE9=I wonder who's kissing her now
TTITLE10=Lonely boy
TTITLE11=Baby won't you please come home
TTITLE12=I'm glad for your sake
TTITLE13=Kiss me baby
TTITLE14=Hey now
TTITLE15=The snow is falling
TTITLE16=Mysery in my heart
TTITLE17=Let me hear you call my name
TTITLE18=Why did you go
TTITLE19=Walkin' and talkin'
EXTD=
EXTT0=
EXTT1=
EXTT2=
EXTT3=
EXTT4=
EXTT5=
EXTT6=
EXTT7=
EXTT8=
EXTT9=
EXTT10=
EXTT11=
EXTT12=
EXTT13=
EXTT14=
EXTT15=
EXTT16=
EXTT17=
EXTT18=
EXTT19=
PLAYORDER=
